<?xml version="1.0" standalone="no"?>
<!DOCTYPE svg PUBLIC "-//W3C//DTD SVG 1.1//EN" "http://www.w3.org/Graphics/SVG/1.1/DTD/svg11.dtd" >
<svg xmlns="http://www.w3.org/2000/svg">
<metadata>
This is a custom SVG webfont generated by Font Squirrel.
Copyright   : Copyright C 1995 Type Market Ltd Moscow 119136 Box 20 phone0951427712 Created by AKustov
</metadata>
<defs>
<font id="EuropeCBold" horiz-adv-x="1204" >
<font-face units-per-em="2048" ascent="1563" descent="-485" />
<missing-glyph horiz-adv-x="720" />
<glyph unicode=" "  horiz-adv-x="720" />
<glyph unicode="&#x09;" horiz-adv-x="720" />
<glyph unicode="&#xa0;" horiz-adv-x="720" />
<glyph unicode="!" horiz-adv-x="700" d="M164 1505h375l-25 -911h-326zM188 0v330h326v-330h-326z" />
<glyph unicode="&#x22;" horiz-adv-x="886" d="M82 1245v260h276v-260l-84 -260h-108zM528 1245v260h277v-260l-84 -260h-109z" />
<glyph unicode="#" horiz-adv-x="1443" d="M170 360v232h227l49 260h-194v231h235l80 420h213l-80 -420h203l80 420h209l-78 -420h160v-231h-197l-47 -260h189v-232h-238l-66 -360h-213l66 360h-203l-65 -360h-213l65 360h-182zM610 592h205l51 260h-209z" />
<glyph unicode="$" horiz-adv-x="1443" d="M47 496h361q0 -131 43 -163t170 -32h194q119 0 171 32t52 122q0 84 -42 111.5t-181 37.5l-194 14q-182 12 -289 38t-167.5 80.5t-79.5 126t-19 192.5q0 147 26.5 235t95 139.5t167 70t266.5 18.5v163h194v-163q80 -4 129 -9.5t112.5 -18.5t101.5 -31.5t78 -53.5t62.5 -81 t37 -113.5t14.5 -155.5h-353q0 98 -37.5 123.5t-144.5 25.5h-194q-106 0 -149.5 -26.5t-43.5 -122.5q0 -72 35 -94.5t158 -32.5l194 -19q92 -8 147.5 -15t125 -21.5t110.5 -33t85 -51t65.5 -75.5t36 -103.5t14.5 -140.5q0 -272 -132 -376.5t-452 -104.5v-185h-194v185 q-152 0 -249.5 19.5t-175 71.5t-113.5 154.5t-36 262.5z" />
<glyph unicode="%" horiz-adv-x="1818" d="M47 1024v221q0 172 65.5 222.5t252.5 50.5q188 0 260.5 -50.5t72.5 -220.5v-221q0 -172 -71.5 -222t-259.5 -50q-186 0 -253 49t-67 221zM248 1055q0 -90 19.5 -108.5t97.5 -18.5q84 0 108.5 19.5t24.5 107.5v168q0 84 -23.5 102t-109.5 18q-78 0 -97.5 -18t-19.5 -102 v-168zM358 0l891 1505h240l-889 -1505h-242zM1122 258v221q0 172 65.5 223.5t254.5 51.5q188 0 260 -51.5t72 -221.5v-221q0 -170 -71 -221t-259 -51t-255 50t-67 220zM1323 291q0 -90 19.5 -109.5t99.5 -19.5q82 0 106.5 20.5t24.5 108.5v166q0 86 -22.5 103.5t-108.5 17.5 q-80 0 -99.5 -17.5t-19.5 -103.5v-166z" />
<glyph unicode="&#x26;" horiz-adv-x="1552" d="M109 465q0 393 266 393q-70 63 -92.5 112.5t-22.5 143.5q0 129 31 209t98.5 122t153.5 57.5t219 15.5q113 0 187.5 -8.5t143 -32t107.5 -69.5t61.5 -120t22.5 -182v-76h-344q0 125 -27.5 157t-150.5 32q-78 0 -104.5 -27t-26.5 -107q0 -47 18.5 -77.5t61.5 -69.5 l364 -330v199h324v-295q0 -70 -41 -147l168 -150l-178 -215l-140 125q-66 -88 -172 -116.5t-274 -28.5q-129 0 -217 8t-177 36.5t-141.5 80t-85 142.5t-32.5 218zM477 506q0 -129 66.5 -168t218.5 -39q115 0 207 41l-400 344q-61 -8 -76.5 -40t-15.5 -138z" />
<glyph unicode="'" horiz-adv-x="440" d="M82 1245v260h276v-260l-84 -260h-108z" />
<glyph unicode="(" horiz-adv-x="772" d="M115 338v528q0 137 3 202t18.5 157t48 132t92 85t153.5 60.5t227 15.5v-326q-104 0 -132.5 -58.5t-28.5 -199.5v-651q0 -258 163 -258v-326q-98 0 -172.5 7t-132 27.5t-96.5 43t-66.5 67.5t-42 85t-22.5 113t-10 134.5t-2 161.5z" />
<glyph unicode=")" horiz-adv-x="772" d="M115 1192v326q115 0 199.5 -15.5t143 -36t96.5 -69.5t59.5 -90t30.5 -124t11 -142.5t2 -174.5v-528q0 -102 -2 -162.5t-8 -133.5t-21.5 -113t-43 -85t-66.5 -67.5t-95 -43t-131 -27.5t-173 -7v326q55 0 90 19t48 63.5t17 79t4 96.5v651q0 141 -28.5 199.5t-132.5 58.5z " />
<glyph unicode="*" horiz-adv-x="1443" d="M311 1149l64 176l254 -90v272h186v-272l260 90l60 -192l-252 -80l151 -213l-147 -113l-156 225l-170 -223l-151 111l155 215z" />
<glyph unicode="+" d="M100 440v230h385v383h232v-383h387v-230h-387v-399h-232v399h-385z" />
<glyph unicode="," horiz-adv-x="720" d="M170 -137q86 0 115.5 30.5t29.5 106.5h-125v330h326v-330q0 -158 -72.5 -221.5t-273.5 -63.5v148z" />
<glyph unicode="-" d="M100 440v230h1004v-230h-1004z" />
<glyph unicode="." horiz-adv-x="720" d="M180 0v330h326v-330h-326z" />
<glyph unicode="/" horiz-adv-x="1277" d="M59 -227l887 1732h275l-885 -1732h-277z" />
<glyph unicode="0" horiz-adv-x="1452" d="M100 516v473q0 106 19.5 189.5t48.5 138.5t80 94t98 59.5t120 31.5t126 14.5t135 3.5t135 -3.5t125 -14.5t120 -31.5t98 -59.5t80 -94t49.5 -138t19.5 -190v-473q0 -106 -19.5 -189t-49.5 -138.5t-80 -96.5t-98 -61.5t-118.5 -32.5t-126 -15t-135.5 -3t-135 3t-127 15 t-119 32.5t-98 61.5t-80 96.5t-48.5 138.5t-19.5 189zM479 580q0 -186 46 -236.5t201 -50.5t201 49t46 236v352q0 184 -45 230t-201 46q-109 0 -156 -17.5t-69.5 -75.5t-22.5 -187v-346z" />
<glyph unicode="1" horiz-adv-x="1443" d="M102 1053l549 452h469v-1505h-401v1151l-389 -356z" />
<glyph unicode="2" horiz-adv-x="1443" d="M125 0v313q0 172 38 260.5t147.5 145.5t342.5 108q111 25 158 36t80 37t37 50.5t4 85.5q0 109 -43 139.5t-170 30.5q-141 0 -178 -28.5t-37 -147.5v-74h-379v76q0 150 37 247t117.5 149.5t182 72t257.5 19.5q119 0 198.5 -9.5t159.5 -37t128 -79t77 -139.5t29 -211 q0 -129 -18.5 -207.5t-73 -132t-123 -83t-199.5 -66.5q-61 -14 -133 -30.5t-105.5 -23.5t-70.5 -21.5t-51.5 -33t-23.5 -51.5t-9 -82h807v-313h-1186z" />
<glyph unicode="3" horiz-adv-x="1443" d="M111 440v80h378v-51q0 -117 53.5 -146.5t178.5 -29.5q133 0 181 32.5t48 157.5q0 57 -13 84t-62.5 42.5t-153.5 15.5h-96v290h96q141 0 176 21.5t35 101.5q0 53 -4 80t-24.5 50.5t-63.5 30.5t-119 7q-115 0 -165 -36.5t-50 -137.5v-31h-379v52q0 106 16.5 184t57.5 129 t87 82t122.5 46t148.5 20.5t180 5.5q90 0 153.5 -5.5t149.5 -29t139.5 -64.5t91.5 -119.5t38 -189.5q0 -309 -230 -340v-16q248 -8 248 -320q0 -141 -42 -234t-128 -140.5t-183 -64.5t-237 -17q-88 0 -146 3t-130 13t-119 29.5t-95 53.5t-76 82t-45 118.5t-17 160.5z" />
<glyph unicode="4" horiz-adv-x="1443" d="M72 297v430l577 778h592v-917h127v-291h-127v-297h-383v297h-786zM387 588h471v608h-12z" />
<glyph unicode="5" horiz-adv-x="1443" d="M131 430h381q6 -86 50 -111.5t143 -25.5q141 0 186 33.5t45 173.5q0 84 -4 119.5t-28.5 68.5t-70 41t-131.5 8q-104 0 -139 -12t-51 -63h-346v843h1087v-291h-741v-288q72 76 126 93t206 17q266 0 368.5 -112.5t102.5 -380.5q0 -180 -32 -291t-111.5 -171.5t-186 -80.5 t-280.5 -20q-299 0 -436.5 94t-137.5 356z" />
<glyph unicode="6" horiz-adv-x="1443" d="M117 596v377q0 176 32.5 282.5t114.5 165t188.5 79t282.5 20.5q80 0 132.5 -2t119 -11.5t111.5 -26t92 -46t73.5 -72.5t44 -106.5t17.5 -145.5v-63h-381q0 106 -44 132.5t-165 26.5q-150 0 -194.5 -33.5t-44.5 -177.5v-237h6q35 100 95 127.5t177 27.5q119 0 193.5 -7 t146.5 -31.5t111 -71.5t62.5 -126t23.5 -196q0 -154 -34 -254t-112 -153.5t-177 -73.5t-253 -20q-193 0 -306.5 24.5t-187 94t-99 185t-25.5 312.5zM496 467q0 -106 34.5 -140t157.5 -34q164 0 204 29.5t40 152.5q0 86 -47 105.5t-197 19.5q-117 0 -154.5 -23.5 t-37.5 -109.5z" />
<glyph unicode="7" horiz-adv-x="1443" d="M117 1176v329h1136v-338l-499 -1167h-422l508 1176h-723z" />
<glyph unicode="8" horiz-adv-x="1443" d="M111 416q0 139 69.5 239.5t202.5 106.5v14q-133 35 -188.5 116t-55.5 228q0 88 21.5 157t64.5 111t93.5 69.5t123 40.5t135 17.5t146.5 4.5q113 0 186.5 -6.5t158.5 -31t133 -67.5t80 -122t32 -191q0 -152 -46 -216.5t-184 -109.5v-14q252 -33 252 -346 q0 -117 -33.5 -198t-84 -127t-136.5 -71.5t-163.5 -32.5t-194.5 -7q-111 0 -189.5 7t-163.5 33.5t-138.5 72.5t-87 127t-33.5 196zM489 461q0 -96 49.5 -132t180.5 -36q113 0 163 18.5t61 50t11 105.5q0 104 -38.5 129t-196.5 25q-143 0 -186.5 -28t-43.5 -132zM518 1053 q0 -90 43 -116t162 -26q131 0 171 27t40 129q0 86 -37 112.5t-174 26.5q-127 0 -166 -26.5t-39 -126.5z" />
<glyph unicode="9" horiz-adv-x="1443" d="M117 387v64h381q0 -104 43 -131t166 -27q145 0 191 36t46 179v242l-10 2q-25 -76 -68 -112t-82 -42t-120 -6q-117 0 -192 7t-148.5 31.5t-111.5 72t-61.5 126t-23.5 195.5q0 154 34 253t112.5 151.5t178 72t253.5 19.5q195 0 307 -23.5t185 -92.5t99.5 -183.5 t26.5 -311.5v-377q0 -176 -34 -283.5t-113.5 -166.5t-187 -80.5t-281.5 -21.5q-80 0 -131.5 2t-121 10t-112.5 24.5t-90 46t-73.5 72.5t-44 106.5t-17.5 145.5zM506 1032q0 -84 49 -105.5t197 -21.5q115 0 153.5 23.5t38.5 109.5q0 106 -35 137t-157 31q-166 0 -206 -26.5 t-40 -147.5z" />
<glyph unicode=":" horiz-adv-x="720" d="M178 0v330h326v-330h-326zM178 725v328h326v-328h-326z" />
<glyph unicode=";" horiz-adv-x="720" d="M170 -137q86 0 115.5 30.5t29.5 106.5h-125v330h326v-330q0 -158 -72.5 -221.5t-273.5 -63.5v148zM190 725v328h326v-328h-326z" />
<glyph unicode="&#x3c;" d="M100 436v240l1004 377v-256l-678 -240l-2 -2l680 -240v-258z" />
<glyph unicode="=" d="M100 209v231h1004v-231h-1004zM100 670v231h1004v-231h-1004z" />
<glyph unicode="&#x3e;" d="M100 57v258l678 238l2 4l-680 240v256l1004 -377v-240z" />
<glyph unicode="?" horiz-adv-x="1212" d="M92 1067v63q0 102 25.5 173t66.5 112t112 64.5t143.5 31t178.5 7.5q129 0 211 -13.5t154 -52.5t106.5 -119t34.5 -203q0 -129 -31.5 -203.5t-86 -116.5t-172.5 -93q-63 -27 -86 -52.5t-23 -72.5v-60h-346v60q0 147 48 219t210 139q80 31 111.5 71t31.5 109 q0 76 -36.5 99.5t-125.5 23.5q-90 0 -135 -23.5t-45 -99.5v-63h-346zM389 0v330h326v-330h-326z" />
<glyph unicode="@" horiz-adv-x="1523" d="M33 750q0 322 222 545t544 223q168 0 327.5 -80t264 -226.5t104.5 -318.5q0 -231 -149.5 -407.5t-352.5 -176.5q-117 0 -116 99l-5 4q-80 -94 -192 -95q-133 0 -234.5 104.5t-101.5 250.5q0 184 113.5 323.5t296.5 139.5q160 0 245 -119l21 102h190l-98 -586 q-6 -31 -6 -47q0 -27 31 -26q70 0 130 107.5t60 262.5q0 238 -148.5 373t-385.5 135q-248 0 -404 -168t-156 -419q0 -264 166 -423t428 -159q211 0 383 135h199q-229 -315 -598 -315q-328 0 -553 217t-225 545zM588 702q0 -74 39 -125t110 -51q90 0 147.5 66.5t57.5 159.5 q0 74 -45 121t-117 47q-82 0 -137 -67t-55 -148v-3z" />
<glyph unicode="A" horiz-adv-x="1538" d="M10 0l451 1505h610l459 -1505h-410l-78 258h-540l-74 -258h-418zM588 551h370l-184 653h-4z" />
<glyph unicode="B" horiz-adv-x="1509" d="M131 0v1505h791q123 0 202.5 -14t145 -54t96.5 -118t31 -199q0 -160 -48.5 -242.5t-189.5 -105.5v-16q156 -8 209 -92t53 -244q0 -137 -30.5 -221t-98 -127t-149.5 -57.5t-213 -14.5h-799zM532 330h304q102 0 143 31.5t41 119.5q0 90 -37 117t-139 27h-312v-295zM532 903 h289q106 0 140 26.5t34 119.5q0 72 -24.5 99.5t-102.5 27.5h-336v-273z" />
<glyph unicode="C" horiz-adv-x="1505" d="M90 557v391q0 145 33 248.5t88 167t148.5 97.5t193.5 46.5t246 12.5q315 0 465.5 -110t150.5 -386v-59h-414v59q0 84 -65.5 114.5t-181.5 30.5q-162 0 -206 -57t-44 -229v-234q0 -80 3 -122t16.5 -87t40 -65.5t72.5 -32.5t118 -12q141 0 194 32.5t53 155.5v43h414v-43 q0 -315 -130 -426.5t-486 -111.5q-102 0 -170 3t-150 15t-133 35.5t-105.5 66.5t-83 102.5t-48 149.5t-19.5 205z" />
<glyph unicode="D" horiz-adv-x="1589" d="M131 0v1505h762q319 0 462.5 -133t143.5 -450v-316q0 -319 -123 -462.5t-428 -143.5h-817zM532 350h353q201 0 200 256v316q0 139 -46 186t-156 47h-351v-805z" />
<glyph unicode="E" horiz-adv-x="1361" d="M131 0v1505h1086v-329h-685v-275h642v-278h-642v-293h699v-330h-1100z" />
<glyph unicode="F" horiz-adv-x="1267" d="M131 0v1505h1067v-329h-666v-295h615v-328h-615v-553h-401z" />
<glyph unicode="G" horiz-adv-x="1560" d="M90 555v391q0 182 47 298t147.5 175.5t219.5 80t301 20.5q160 0 270.5 -18.5t205.5 -68t142 -147.5t47 -246h-407q0 150 -258 150q-86 0 -142.5 -13.5t-88 -33t-47 -65.5t-19.5 -91t-4 -131v-244q0 -98 16.5 -159.5t57 -92t91 -41t136.5 -10.5q154 0 206 50.5t52 203.5 h-277v281h684v-264q0 -197 -26.5 -309.5t-106.5 -180t-199.5 -89t-332.5 -21.5q-154 0 -258.5 13t-197.5 49t-145 100.5t-83 167t-31 245.5z" />
<glyph unicode="H" horiz-adv-x="1587" d="M131 0v1505h401v-565h523v565h401v-1505h-401v590h-523v-590h-401z" />
<glyph unicode="I" horiz-adv-x="661" d="M131 0v1505h401v-1505h-401z" />
<glyph unicode="J" horiz-adv-x="1206" d="M45 498v125h381v-125q0 -98 21.5 -133t101.5 -35q88 0 113.5 28.5t25.5 104.5v1042h402v-1042q0 -154 -24 -245t-90.5 -146.5t-163.5 -73.5t-263 -18q-164 0 -257 21.5t-151.5 82.5t-77 155.5t-18.5 258.5z" />
<glyph unicode="K" horiz-adv-x="1568" d="M131 0v1505h401v-565h119l389 565h486l-531 -739l574 -766h-498l-420 590h-119v-590h-401z" />
<glyph unicode="L" d="M131 0v1505h401v-1155h627v-350h-1028z" />
<glyph unicode="M" horiz-adv-x="2121" d="M131 0v1505h635l287 -946h14l274 946h652v-1505h-402l41 1155l-18 2l-377 -1157h-348l-379 1157l-18 -2l40 -1155h-401z" />
<glyph unicode="N" horiz-adv-x="1746" d="M123 0v1505h678l446 -1157l2 2l-24 1155h401v-1505h-684l-440 1159l-2 -4l24 -1155h-401z" />
<glyph unicode="O" horiz-adv-x="1572" d="M90 541v424q0 170 49 281.5t148.5 170t216.5 81t283.5 22.5t282.5 -22.5t215 -81t148.5 -170t49.5 -281.5v-424q0 -137 -34 -236.5t-92.5 -162t-149.5 -99.5t-190 -50t-230.5 -13t-230.5 13t-190.5 50t-149.5 99.5t-92 162t-34 236.5zM504 584q0 -160 58.5 -207t225 -47 t224 47t57.5 207v340q0 158 -57.5 201.5t-225.5 43.5t-225 -43t-57 -202v-340z" />
<glyph unicode="P" horiz-adv-x="1490" d="M131 0v1505h756q281 0 397.5 -119.5t116.5 -412.5q0 -166 -21.5 -266.5t-79 -169t-154.5 -94t-259 -25.5h-355v-418h-401zM532 748h275q117 0 148.5 38.5t31.5 182.5q0 121 -33.5 164t-146.5 43h-275v-428z" />
<glyph unicode="Q" horiz-adv-x="1587" d="M90 594v317q0 182 43 303t136 186.5t216 92.5t303.5 27t303 -27t216 -92.5t136.5 -186t43 -303.5v-321q0 -172 -31 -256l166 -113l-166 -223l-147 119q-156 -137 -521 -137q-184 0 -307 25.5t-215 92t-134 188.5t-42 308zM504 580q0 -86 15.5 -136.5t54 -75t83.5 -31.5 t129 -7q102 0 181 28l-267 177l158 223l215 -152v246q0 201 -50 259t-237 58q-184 0 -233 -57t-49 -260v-272z" />
<glyph unicode="R" horiz-adv-x="1505" d="M131 0v1505h774q270 0 387 -97t117 -353q0 -240 -49 -333t-221 -136v-17q137 -14 203.5 -76.5t66.5 -189.5v-303h-401v250q0 188 -164 188h-312v-438h-401zM532 766h312q111 0 137.5 43t26.5 192q0 102 -33 138.5t-131 36.5h-312v-410z" />
<glyph unicode="S" horiz-adv-x="1470" d="M90 481h385q0 -113 49 -142.5t205 -29.5q147 0 198.5 26.5t51.5 119.5q0 29 -6 48t-22.5 39.5t-55.5 36t-98 23.5l-383 55q-92 14 -159 50t-116 125.5t-49 226.5q0 121 31 207t80 135t135 75.5t174 35t219 8.5q160 0 263.5 -15.5t186.5 -59.5t121.5 -129t38.5 -220v-62 h-385q0 106 -47 131t-178 25q-152 0 -194.5 -28.5t-42.5 -102.5t38.5 -97.5t178.5 -52.5l385 -75q150 -29 218 -115t68 -238q0 -131 -14 -212t-51 -143.5t-114 -91t-186.5 -41.5t-285.5 -13q-141 0 -231 9t-175 37.5t-131.5 83t-74 146.5t-27.5 225z" />
<glyph unicode="T" horiz-adv-x="1292" d="M41 1155v350h1212v-350h-405v-1155h-402v1155h-405z" />
<glyph unicode="U" horiz-adv-x="1556" d="M131 502v1003h401v-977q0 -119 55.5 -158.5t191.5 -39.5t191.5 40t55.5 158v977h401v-1003q0 -195 -50 -302.5t-191.5 -163.5t-407.5 -56q-209 0 -338 29.5t-197.5 98t-90 158t-21.5 236.5z" />
<glyph unicode="V" horiz-adv-x="1490" d="M0 1505h408l325 -1157h4l338 1157h416l-438 -1505h-627z" />
<glyph unicode="W" horiz-adv-x="2250" d="M0 1505h408l217 -1157h10l287 1157h417l269 -1157h6l235 1157h404l-334 -1505h-580l-204 944h-17l-219 -944h-573z" />
<glyph unicode="X" horiz-adv-x="1554" d="M10 0l451 774l-422 731h469l270 -551l275 551h460l-415 -731l448 -774h-469l-299 580l-297 -580h-471z" />
<glyph unicode="Y" horiz-adv-x="1484" d="M0 1505h459l270 -579h14l277 579h465l-549 -977v-528h-401v528z" />
<glyph unicode="Z" horiz-adv-x="1320" d="M47 0v340l709 805v10h-664v350h1184v-338l-721 -807v-10h721v-350h-1229z" />
<glyph unicode="[" horiz-adv-x="772" d="M115 -301v1819h542v-326h-163v-1167h165v-326h-544z" />
<glyph unicode="\" horiz-adv-x="1284" d="M150 1505h280l707 -1505h-283z" />
<glyph unicode="]" horiz-adv-x="772" d="M117 25h162v1167h-162v326h540v-1819h-540v326z" />
<glyph unicode="^" d="M100 502l381 1003h242l381 -1003h-260l-240 678h-4l-240 -678h-260z" />
<glyph unicode="_" horiz-adv-x="1003" d="M0 -152h1004v-149h-1004v149z" />
<glyph unicode="`" horiz-adv-x="808" d="M152 1294l98 224l409 -242l-55 -123z" />
<glyph unicode="a" horiz-adv-x="1220" d="M82 315q0 182 93 257t288 75q57 0 92 -3t80 -13t74.5 -37t42.5 -66h14v166q0 47 -3 70.5t-16.5 51.5t-47 38t-87.5 10q-72 0 -107.5 -21.5t-35.5 -88.5h-344q0 76 15.5 132t53 90t75.5 55.5t102.5 29.5t111.5 10t127 2q143 0 229.5 -13t152 -57.5t93 -127t27.5 -218.5 v-657h-346l12 156h-12q-31 -172 -303 -172q-195 0 -288 70.5t-93 260.5zM428 326q0 -119 150 -119q111 0 149.5 25.5t38.5 107.5q0 59 -44 75.5t-144 16.5q-74 0 -112 -20t-38 -86z" />
<glyph unicode="b" horiz-adv-x="1253" d="M111 0v1505h344v-598l16 -4q72 170 293 170q215 0 307 -107.5t92 -349.5v-241q0 -205 -101 -298t-298 -93q-121 0 -196.5 43t-104.5 155h-14l6 -182h-344zM455 528q0 -180 31.5 -229t148.5 -49q119 0 151.5 49t32.5 227q0 162 -34.5 222.5t-149.5 60.5 q-111 0 -145.5 -60.5t-34.5 -220.5z" />
<glyph unicode="c" horiz-adv-x="1142" d="M70 526q0 143 18 236.5t71.5 169.5t155 108.5t258.5 32.5q102 0 171 -7t139.5 -30.5t110.5 -67.5t64.5 -120t24.5 -182h-344q0 88 -32.5 115.5t-133.5 27.5q-94 0 -125.5 -53.5t-31.5 -229.5q0 -180 28.5 -228t128.5 -48q113 0 139.5 31.5t26.5 136.5h344 q0 -141 -27.5 -226.5t-95 -131.5t-154.5 -61t-233 -15q-301 0 -402 112.5t-101 429.5z" />
<glyph unicode="d" horiz-adv-x="1253" d="M90 375v241q0 242 92 349.5t307 107.5q229 0 299 -170h11v602h346v-1505h-346l8 182h-16q-29 -113 -104 -155.5t-198 -42.5q-197 0 -298 93t-101 298zM436 528q0 -180 31 -229t147 -49q119 0 152 49t33 227q0 162 -35 222.5t-150 60.5q-111 0 -144.5 -60.5t-33.5 -220.5z " />
<glyph unicode="e" horiz-adv-x="1169" d="M70 526q0 160 21.5 257.5t78.5 167t156.5 96t259.5 26.5q299 0 406.5 -112.5t107.5 -434.5v-59h-684q0 -141 32.5 -191.5t137.5 -50.5q49 0 72.5 2t50 12.5t36 34t9.5 64.5h346q0 -94 -26.5 -161.5t-68.5 -104.5t-114 -57.5t-138.5 -25.5t-166.5 -5q-156 0 -255.5 28.5 t-157.5 96t-80.5 164.5t-22.5 253zM416 657h338q0 111 -39 144t-135 33q-94 0 -129 -37.5t-35 -139.5z" />
<glyph unicode="f" horiz-adv-x="788" d="M41 801v252h137v102q0 143 47 216t166 103.5t354 30.5v-262q-35 10 -73 10q-102 0 -125 -28.5t-23 -132.5v-39h234v-252h-234v-801h-346v801h-137z" />
<glyph unicode="g" horiz-adv-x="1253" d="M90 528q0 141 13.5 231.5t54.5 167.5t125 111.5t217 34.5q121 0 194.5 -46t104.5 -161h12l-12 187h346v-1004q0 -303 -98.5 -413.5t-397.5 -110.5q-289 0 -400.5 74.5t-111.5 287.5h320q0 -70 41 -90t120 -20q113 0 147 33.5t34 142.5v219h-13q-63 -188 -286 -188 q-109 0 -185.5 29.5t-119.5 74.5t-68 121t-31 146.5t-6 172.5zM436 528q0 -180 31 -229t147 -49q119 0 152 49t33 227q0 162 -35 222.5t-150 60.5q-111 0 -144.5 -60.5t-33.5 -220.5z" />
<glyph unicode="h" horiz-adv-x="1232" d="M111 0v1505h344v-649h10q37 121 114.5 169t206.5 48q338 0 338 -344v-729h-346v649q0 82 -30.5 121t-110.5 39q-106 0 -144 -59.5t-38 -169.5v-580h-344z" />
<glyph unicode="i" horiz-adv-x="565" d="M111 0v1053h344v-1053h-344zM111 1241v264h344v-264h-344z" />
<glyph unicode="j" horiz-adv-x="565" d="M12 -209q57 0 78 27.5t21 75.5v1159h344v-1196q0 -170 -82 -241t-258 -71q-63 0 -103 11v235zM111 1241v264h344v-264h-344z" />
<glyph unicode="k" horiz-adv-x="1187" d="M111 0v1505h344v-848h61l209 396h379l-297 -504l364 -549h-403l-252 428h-61v-428h-344z" />
<glyph unicode="l" horiz-adv-x="565" d="M111 0v1505h344v-1505h-344z" />
<glyph unicode="m" horiz-adv-x="1853" d="M111 0v1053h344v-148h4q31 86 111.5 127t179.5 41q297 0 317 -215h16q12 106 97.5 160.5t195.5 54.5q184 0 276.5 -84t92.5 -266v-723h-346v610q0 51 -3 79t-15.5 59.5t-42 46t-78.5 14.5q-92 0 -126 -56.5t-34 -154.5v-598h-346v639q0 86 -23.5 128t-105.5 42 q-100 0 -135 -52t-35 -159v-598h-344z" />
<glyph unicode="n" horiz-adv-x="1232" d="M111 0v1053h344v-197h10q37 121 114.5 169t206.5 48q338 0 338 -344v-729h-346v649q0 82 -30.5 121t-110.5 39q-106 0 -144 -59.5t-38 -169.5v-580h-344z" />
<glyph unicode="o" horiz-adv-x="1193" d="M70 526q0 170 20.5 268.5t79.5 166t158.5 90t267.5 22.5q170 0 268.5 -21.5t159.5 -86t80.5 -165t19.5 -274.5q0 -172 -20.5 -270t-80.5 -162.5t-159.5 -87t-267.5 -22.5q-164 0 -263.5 24.5t-159.5 90t-81.5 163.5t-21.5 264zM416 528q0 -180 30.5 -229t147.5 -49 q119 0 151.5 49t32.5 227q0 162 -34.5 222.5t-149.5 60.5q-111 0 -144.5 -60.5t-33.5 -220.5z" />
<glyph unicode="p" horiz-adv-x="1253" d="M111 -455v1508h344l-6 -166h14q53 186 301 186q399 0 399 -395v-240q0 -244 -92 -349t-307 -105q-109 0 -181.5 36.5t-111.5 137.5h-16v-613h-344zM455 528q0 -180 31.5 -229t148.5 -49q119 0 151.5 49t32.5 227q0 162 -34.5 222.5t-149.5 60.5q-111 0 -145.5 -60.5 t-34.5 -220.5z" />
<glyph unicode="q" horiz-adv-x="1253" d="M90 438v240q0 395 399 395q250 0 302 -186h16l-8 166h346v-1508h-346v613h-17q-37 -100 -110.5 -137t-179.5 -37q-217 0 -309.5 105t-92.5 349zM436 528q0 -180 31 -229t147 -49q119 0 152 49t33 227q0 162 -35 222.5t-150 60.5q-111 0 -144.5 -60.5t-33.5 -220.5z" />
<glyph unicode="r" horiz-adv-x="1026" d="M111 0v1053h344v-154h4q68 174 268 174q70 0 119 -23.5t76.5 -59.5t41 -92t17.5 -104.5t4 -117.5v-84h-311v53q0 164 -99 164q-121 0 -120 -176v-633h-344z" />
<glyph unicode="s" horiz-adv-x="1171" d="M70 322h346q0 -72 38 -93.5t132 -21.5q109 0 144.5 18.5t35.5 77.5q0 61 -37 83t-143 22q-285 0 -400.5 75.5t-115.5 243.5q0 113 34.5 183.5t108.5 106.5t157 46t216 10q80 0 138 -4t124.5 -18.5t107.5 -42t69 -77.5t28 -118v-51h-326q-6 55 -37 72.5t-104 17.5 q-117 0 -148.5 -20.5t-31.5 -73.5q0 -23 5 -37t21.5 -30.5t54 -24t99.5 -7.5q283 0 399.5 -62t116.5 -253q0 -115 -29 -187.5t-96.5 -109.5t-153.5 -50t-225 -13q-121 0 -193.5 6t-144.5 25.5t-108.5 55t-59 97.5t-22.5 154z" />
<glyph unicode="t" horiz-adv-x="987" d="M29 801v252h127v223h346v-223h399v-252h-399v-471q0 -51 16.5 -71.5t61.5 -20.5q90 0 90 135v57h278v-94q0 -209 -85 -280.5t-304 -71.5q-94 0 -156.5 10t-124 38.5t-92 90t-30.5 158.5v520h-127z" />
<glyph unicode="u" horiz-adv-x="1230" d="M111 334v719h344v-627q0 -88 29.5 -132t105.5 -44t131 41t55 115v647h346v-1053h-336l13 203h-17q-63 -219 -315 -219q-356 0 -356 350z" />
<glyph unicode="v" horiz-adv-x="1103" d="M6 1053h361l190 -822h10l174 822h357l-258 -1053h-543z" />
<glyph unicode="w" horiz-adv-x="1689" d="M6 1053h332l115 -822h16l176 822h404l174 -822h14l121 822h325l-184 -1053h-495l-150 752h-10l-146 -752h-501z" />
<glyph unicode="x" horiz-adv-x="1128" d="M6 0l313 557l-270 496h400l118 -291l127 291h402l-277 -496l305 -557h-405l-152 348l-145 -348h-416z" />
<glyph unicode="y" horiz-adv-x="1107" d="M6 1053h361l208 -856h5l172 856h352l-264 -1145q-47 -205 -144.5 -290t-310.5 -85q-18 0 -36.5 1t-43 3t-39.5 2v242q6 0 27.5 -4t34.5 -4q100 0 137 59t43 168h-189z" />
<glyph unicode="z" horiz-adv-x="995" d="M43 0v285l498 528h-461v240h874v-273l-510 -538h510v-242h-911z" />
<glyph unicode="{" horiz-adv-x="772" d="M49 485v267q92 0 128 14t36 74v411q0 123 78 196t149 73h285v-267h-74q-57 0 -75.5 -27.5t-18.5 -74.5v-344q0 -53 -19.5 -91t-53 -57.5t-62.5 -28.5t-57 -12v-4q35 -4 59.5 -10t59 -25.5t54 -62.5t19.5 -106v-344q0 -37 23.5 -71t70.5 -34h74v-264h-285 q-72 0 -149.5 72.5t-77.5 195.5v412q0 72 -36 90t-128 18z" />
<glyph unicode="|" d="M487 0v1505h232v-1505h-232z" />
<glyph unicode="}" horiz-adv-x="772" d="M49 -39h74q41 0 66.5 33t25.5 72v344q0 186 193 204v4q-29 2 -57.5 11.5t-62.5 29t-53.5 57.5t-19.5 91v344q0 102 -92 102h-74v267h289q70 0 145.5 -73t75.5 -196v-411q0 -37 36 -58.5t67.5 -25.5t62.5 -4v-267q-33 0 -62.5 -5t-66.5 -30.5t-37 -72.5v-412 q0 -123 -78 -195.5t-147 -72.5h-285v264z" />
<glyph unicode="~" d="M100 391q0 74 12.5 140.5t39 132t82 104.5t131.5 39q68 0 135 -47l223 -156q76 -51 119 -51q33 0 50 52t17 116h195q0 -100 -20.5 -186t-80 -156t-155.5 -70q-61 0 -150 58l-247 161q-61 37 -99 37q-14 0 -25.5 -10t-16.5 -33.5t-7 -40t-5 -49.5t-3 -41h-195z" />
<glyph unicode="&#xa4;" horiz-adv-x="1443" d="M190 1108l148 145l164 -166q84 66 227 66q131 0 215 -61l166 163l143 -141l-168 -166q2 -4 26 -42t34 -73.5t10 -80.5q0 -31 -3 -59.5t-9 -48t-16.5 -45.5t-16.5 -36t-17.5 -31.5t-13.5 -25.5l164 -162l-145 -137l-162 162q-4 -2 -31.5 -16.5t-39 -18.5t-37 -14.5 t-52 -13.5t-59.5 -3q-119 0 -209 70l-168 -168l-143 141l163 166q-76 92 -75 233q0 131 71 201zM530 719q0 -76 58.5 -130t132.5 -54q94 0 142 61t48 127q0 80 -53 139.5t-137 59.5t-137.5 -61.5t-53.5 -141.5z" />
<glyph unicode="&#xa6;" d="M487 -100v602h232v-602h-232zM487 803v602h232v-602h-232z" />
<glyph unicode="&#xa7;" horiz-adv-x="1443" d="M51 526q0 57 3 92t16.5 84.5t44 79t80.5 43.5q-63 43 -83 113t-20 186q0 76 11.5 129.5t47 107.5t102 85t181.5 51.5t277 20.5q125 0 199.5 -5.5t162.5 -27t136 -62.5t82 -115.5t34 -185.5v-84h-371q-4 113 -41 138q-39 29 -202 28q-137 0 -177 -22.5t-40 -75.5 q0 -23 2 -38t11 -26.5t14 -17.5t23.5 -12t28 -8.5t40 -8.5t42.5 -8l379 -67q90 -16 137.5 -28.5t97.5 -36.5t71.5 -60.5t37 -94t15.5 -143.5q0 -49 -1 -76.5t-8.5 -69.5t-18.5 -68t-35.5 -53.5t-61.5 -43.5q80 -27 102.5 -94.5t22.5 -184.5q0 -98 -13.5 -159.5t-53.5 -119 t-113.5 -89t-197.5 -49t-304 -17.5q-123 0 -203 6t-157 23.5t-120 51.5t-77.5 90t-48 138t-13.5 197h373q0 -125 47 -159t199 -34q176 0 228 25t52 95.5t-34.5 94t-141.5 41.5l-477 82q-184 33 -235.5 95.5t-51.5 246.5zM395 590q0 -86 31 -115t117 -43l403 -72 q104 0 105 156q0 68 -29 93.5t-119 45.5q-309 76 -403 76q-105 0 -105 -141z" />
<glyph unicode="&#xa9;" horiz-adv-x="1605" d="M39 752.5q0 316.5 223 541t540.5 224.5t541 -224.5t223.5 -541t-223.5 -540.5t-541 -224t-540.5 224t-223 540.5zM211 754.5q0 -244.5 172 -418.5t420 -174q244 0 418 173t174 417.5t-174 417.5t-418 173q-248 0 -420 -172t-172 -416.5zM393 758q0 205 119 335t319 130 q147 0 250 -82t127 -221h-178q-14 72 -69.5 114.5t-131.5 42.5q-123 0 -193.5 -93t-70.5 -222q0 -121 75 -220.5t196 -99.5q74 0 132 47.5t62 118.5h178q-16 -143 -121.5 -227t-250.5 -84q-199 0 -321 131t-122 330z" />
<glyph unicode="&#xab;" horiz-adv-x="1114" d="M92 547l258 487l225 -123l-192 -364l192 -340l-215 -133zM541 547l256 487l227 -123l-193 -364l193 -340l-215 -133z" />
<glyph unicode="&#xac;" d="M100 440v230h1004v-586h-232v356h-772z" />
<glyph unicode="&#xad;" d="M100 440v230h1004v-230h-1004z" />
<glyph unicode="&#xae;" horiz-adv-x="1605" d="M39 752.5q0 316.5 223 541t540.5 224.5t541 -224.5t223.5 -541t-223.5 -540.5t-541 -224t-540.5 224t-223 540.5zM211 754.5q0 -244.5 172 -418.5t420 -174q244 0 418 172t174 416.5t-174 418.5t-418 174q-248 0 -420 -172t-172 -416.5zM473 334v825h414q164 0 242.5 -50 t78.5 -202q0 -113 -56 -165t-169 -60l201 -348h-197l-184 338h-156v-338h-174zM647 805h244q76 0 110.5 24.5t34.5 100.5q0 57 -46 77.5t-136 20.5h-207v-223z" />
<glyph unicode="&#xb0;" horiz-adv-x="802" d="M102 1217q0 123 88.5 212t212.5 89q123 0 212.5 -88.5t89.5 -213t-88.5 -213t-213 -88.5t-213 88.5t-88.5 213.5zM244 1219q0 -68 46 -117t113 -49q66 0 113 48t47 115.5t-47 114.5t-115 47q-66 0 -111.5 -44.5t-45.5 -114.5z" />
<glyph unicode="&#xb1;" d="M100 160v231h1004v-231h-1004zM100 748v229h385v240h232v-240h387v-229h-387v-246h-232v246h-385z" />
<glyph unicode="&#xb5;" horiz-adv-x="1230" d="M111 -455v1508h344v-627q0 -43 4 -69.5t16 -53.5t39 -40t68 -13q76 0 135 42t59 114v647h346v-1053h-346l23 203h-17q-63 -215 -327 -215v-443h-344z" />
<glyph unicode="&#x3bc;" horiz-adv-x="1230" d="M111 -455v1508h344v-627q0 -43 4 -69.5t16 -53.5t39 -40t68 -13q76 0 135 42t59 114v647h346v-1053h-346l23 203h-17q-63 -215 -327 -215v-443h-344z" />
<glyph unicode="&#xb6;" horiz-adv-x="1443" d="M0 950q0 299 118 427t396 128h918v-1960h-242v1669h-154v-1669h-241v846h-260q-172 0 -272.5 24.5t-160 91t-81 168t-21.5 275.5zM371 950q0 -78 3 -114.5t14 -72.5t37 -50.5t65.5 -22.5t105.5 -8h199v532h-201q-80 0 -125 -11t-67.5 -47t-26.5 -77t-4 -129z" />
<glyph unicode="&#xb7;" horiz-adv-x="720" d="M199 399v330h325v-330h-325z" />
<glyph unicode="&#x2219;" horiz-adv-x="720" d="M199 399v330h325v-330h-325z" />
<glyph unicode="&#xbb;" horiz-adv-x="1114" d="M78 197l192 364l-192 340l215 133l268 -473l-256 -487zM526 197l193 364l-193 340l215 133l269 -473l-256 -487z" />
<glyph unicode="&#x401;" horiz-adv-x="1361" d="M131 0v1505h1086v-329h-685v-275h642v-278h-642v-293h699v-330h-1100zM362 1673v207h220v-207h-220zM780 1673v207h219v-207h-219z" />
<glyph unicode="&#x402;" horiz-adv-x="1753" d="M14 1192v313h1344v-313h-471v-268h289q258 0 372.5 -107.5t114.5 -355.5q0 -225 -104.5 -343t-382.5 -118h-154v313h76q92 0 128 28t36 116q0 86 -31 119.5t-125 33.5h-219v-610h-402v1192h-471z" />
<glyph unicode="&#x403;" horiz-adv-x="1267" d="M131 0v1505h1067v-329h-666v-1176h-401zM553 1616l213 330h340l-363 -330h-190z" />
<glyph unicode="&#x404;" horiz-adv-x="1482" d="M90 557v391q0 174 44 289t137.5 175.5t213 84t295.5 23.5q319 0 476 -110t157 -384v-20h-414v38q0 84 -59 115t-186 31q-154 0 -202 -57.5t-48 -229.5h364v-278h-364q0 -76 3 -118t16.5 -87t40 -64.5t72.5 -33t118 -13.5q141 0 193 32t52 155v45h414v-97 q0 -121 -33.5 -207.5t-87 -136t-139.5 -77t-165 -35.5t-189 -8q-102 0 -170 3t-150 15t-133 35.5t-105.5 66.5t-83 102.5t-48 149.5t-19.5 205z" />
<glyph unicode="&#x405;" horiz-adv-x="1470" d="M90 481h385q0 -113 49 -142.5t205 -29.5q147 0 198.5 26.5t51.5 119.5q0 29 -6 48t-22.5 39.5t-55.5 36t-98 23.5l-383 55q-92 14 -159 50t-116 125.5t-49 226.5q0 121 31 207t80 135t135 75.5t174 35t219 8.5q160 0 263.5 -15.5t186.5 -59.5t121.5 -129t38.5 -220v-62 h-385q0 106 -47 131t-178 25q-152 0 -194.5 -28.5t-42.5 -102.5t38.5 -97.5t178.5 -52.5l385 -75q150 -29 218 -115t68 -238q0 -131 -14 -212t-51 -143.5t-114 -91t-186.5 -41.5t-285.5 -13q-141 0 -231 9t-175 37.5t-131.5 83t-74 146.5t-27.5 225z" />
<glyph unicode="&#x406;" horiz-adv-x="661" d="M131 0v1505h401v-1505h-401z" />
<glyph unicode="&#x407;" horiz-adv-x="663" d="M12 1673v207h219v-207h-219zM131 0v1505h401v-1505h-401zM434 1673v207h217v-207h-217z" />
<glyph unicode="&#x408;" horiz-adv-x="1206" d="M45 498v125h381v-125q0 -98 21.5 -133t101.5 -35q88 0 113.5 28.5t25.5 104.5v1042h402v-1042q0 -154 -24 -245t-90.5 -146.5t-163.5 -73.5t-263 -18q-164 0 -257 21.5t-151.5 82.5t-77 155.5t-18.5 258.5z" />
<glyph unicode="&#x409;" horiz-adv-x="2435" d="M20 2v326q41 -14 123 -15q82 0 115 46.5t33 158.5v987h1218v-581h373q238 0 351.5 -107.5t113.5 -354.5t-114.5 -354.5t-350.5 -107.5h-774v1155h-436v-631q0 -256 -111.5 -398t-335.5 -142q-113 0 -205 18zM1509 313h279q88 0 123 30t35 114q0 92 -35 122.5t-123 30.5 h-279v-297z" />
<glyph unicode="&#x40a;" horiz-adv-x="2383" d="M131 0v1505h401v-581h523v581h401v-581h375q236 0 349.5 -107.5t113.5 -354.5t-115 -354.5t-348 -107.5h-776v610h-523v-610h-401zM1456 313h281q88 0 121.5 30t33.5 114q0 92 -33.5 122.5t-121.5 30.5h-281v-297z" />
<glyph unicode="&#x40b;" horiz-adv-x="1753" d="M14 1192v313h1344v-313h-471v-268h284q248 0 361 -108.5t113 -354.5v-461h-402v457q0 86 -31.5 119.5t-126.5 33.5h-198v-610h-402v1192h-471z" />
<glyph unicode="&#x40c;" horiz-adv-x="1568" d="M131 0v1505h401v-565h119l389 565h486l-531 -739l574 -766h-498l-420 590h-119v-590h-401zM586 1616l215 330h340l-365 -330h-190z" />
<glyph unicode="&#x40e;" horiz-adv-x="1484" d="M4 1505h455l266 -647h18l258 647h463l-585 -1188q-88 -178 -198 -257.5t-267 -79.5q-88 0 -201 18v326q41 -14 133 -15q92 0 124 20.5t52 80.5zM381 1923h170q0 -78 40 -106.5t142.5 -28.5t142 28.5t39.5 106.5h168q0 -188 -84 -247.5t-266 -59.5q-184 0 -268 59.5 t-84 247.5z" />
<glyph unicode="&#x40f;" horiz-adv-x="1587" d="M131 0v1505h401v-1155h523v1155h401v-1505h-520v-344h-285v344h-520z" />
<glyph unicode="&#x410;" horiz-adv-x="1538" d="M10 0l451 1505h610l459 -1505h-410l-78 258h-540l-74 -258h-418zM588 551h370l-184 653h-4z" />
<glyph unicode="&#x411;" horiz-adv-x="1458" d="M131 0v1505h1098v-313h-697v-268h373q238 0 350.5 -107.5t112.5 -354.5t-113.5 -354.5t-349.5 -107.5h-774zM532 313h279q88 0 122 30t34 114q0 92 -34 122.5t-122 30.5h-279v-297z" />
<glyph unicode="&#x412;" horiz-adv-x="1509" d="M131 0v1505h791q123 0 202.5 -14t145 -54t96.5 -118t31 -199q0 -160 -48.5 -242.5t-189.5 -105.5v-16q156 -8 209 -92t53 -244q0 -137 -30.5 -221t-98 -127t-149.5 -57.5t-213 -14.5h-799zM532 330h304q102 0 143 31.5t41 119.5q0 90 -37 117t-139 27h-312v-295zM532 903 h289q106 0 140 26.5t34 119.5q0 72 -24.5 99.5t-102.5 27.5h-336v-273z" />
<glyph unicode="&#x413;" horiz-adv-x="1267" d="M131 0v1505h1067v-329h-666v-1176h-401z" />
<glyph unicode="&#x414;" horiz-adv-x="1638" d="M45 346h117q82 109 115.5 250t33.5 381v528h1157v-1159h127v-694h-381v348h-788v-348h-381v694zM567 346h500v813h-375v-205q0 -217 -28.5 -356t-96.5 -252z" />
<glyph unicode="&#x415;" horiz-adv-x="1361" d="M131 0v1505h1086v-329h-685v-275h642v-278h-642v-293h699v-330h-1100z" />
<glyph unicode="&#x416;" horiz-adv-x="2349" d="M12 0l523 776l-455 729h459l331 -565h121v565h379v-565h121l334 565h456l-452 -729l522 -776h-498l-362 590h-121v-590h-379v590h-121l-360 -590h-498z" />
<glyph unicode="&#x417;" horiz-adv-x="1470" d="M90 481h385q0 -113 49 -142.5t205 -29.5q141 0 195.5 33t54.5 127q0 84 -40 120t-136 36h-213v278h190q98 0 136 29t38 117q0 76 -46 108.5t-189 32.5q-127 0 -177 -31t-50 -123h-383v62q0 240 150.5 331t465.5 91t473 -87t158 -313q0 -160 -48 -242.5t-188 -105.5v-16 q139 -10 199.5 -91t60.5 -225q0 -186 -49 -279t-188 -137t-414 -44q-174 0 -281.5 18t-194.5 71.5t-125 153.5t-38 258z" />
<glyph unicode="&#x418;" horiz-adv-x="1652" d="M131 0v1505h381v-991h14l469 991h529v-1505h-381v991h-15l-452 -991h-545z" />
<glyph unicode="&#x419;" horiz-adv-x="1652" d="M131 0v1505h381v-991h14l469 991h529v-1505h-381v991h-15l-452 -991h-545zM442 1923h168q0 -78 40 -106.5t142.5 -28.5t142.5 28.5t40 106.5h170q0 -188 -85 -247.5t-267 -59.5q-184 0 -267.5 59.5t-83.5 247.5z" />
<glyph unicode="&#x41a;" horiz-adv-x="1568" d="M131 0v1505h401v-565h119l389 565h486l-531 -739l574 -766h-498l-420 590h-119v-590h-401z" />
<glyph unicode="&#x41b;" horiz-adv-x="1638" d="M20 2v326q41 -14 123 -15q82 0 115 46.5t33 158.5v987h1218v-1505h-401v1155h-436v-631q0 -256 -111.5 -398t-335.5 -142q-113 0 -205 18z" />
<glyph unicode="&#x41c;" horiz-adv-x="2121" d="M131 0v1505h635l287 -946h14l274 946h652v-1505h-402l41 1155l-18 2l-377 -1157h-348l-379 1157l-18 -2l40 -1155h-401z" />
<glyph unicode="&#x41d;" horiz-adv-x="1587" d="M131 0v1505h401v-565h523v565h401v-1505h-401v590h-523v-590h-401z" />
<glyph unicode="&#x41e;" horiz-adv-x="1572" d="M90 541v424q0 170 49 281.5t148.5 170t216.5 81t283.5 22.5t282.5 -22.5t215 -81t148.5 -170t49.5 -281.5v-424q0 -137 -34 -236.5t-92.5 -162t-149.5 -99.5t-190 -50t-230.5 -13t-230.5 13t-190.5 50t-149.5 99.5t-92 162t-34 236.5zM504 584q0 -160 58.5 -207t225 -47 t224 47t57.5 207v340q0 158 -57.5 201.5t-225.5 43.5t-225 -43t-57 -202v-340z" />
<glyph unicode="&#x41f;" horiz-adv-x="1587" d="M131 0v1505h1325v-1505h-401v1155h-523v-1155h-401z" />
<glyph unicode="&#x420;" horiz-adv-x="1490" d="M131 0v1505h756q281 0 397.5 -119.5t116.5 -412.5q0 -166 -21.5 -266.5t-79 -169t-154.5 -94t-259 -25.5h-355v-418h-401zM532 748h275q117 0 148.5 38.5t31.5 182.5q0 121 -33.5 164t-146.5 43h-275v-428z" />
<glyph unicode="&#x421;" horiz-adv-x="1505" d="M90 557v391q0 145 33 248.5t88 167t148.5 97.5t193.5 46.5t246 12.5q315 0 465.5 -110t150.5 -386v-59h-414v59q0 84 -65.5 114.5t-181.5 30.5q-162 0 -206 -57t-44 -229v-234q0 -80 3 -122t16.5 -87t40 -65.5t72.5 -32.5t118 -12q141 0 194 32.5t53 155.5v43h414v-43 q0 -315 -130 -426.5t-486 -111.5q-102 0 -170 3t-150 15t-133 35.5t-105.5 66.5t-83 102.5t-48 149.5t-19.5 205z" />
<glyph unicode="&#x422;" horiz-adv-x="1292" d="M41 1155v350h1212v-350h-405v-1155h-402v1155h-405z" />
<glyph unicode="&#x423;" horiz-adv-x="1484" d="M4 1505h455l266 -647h18l258 647h463l-585 -1188q-88 -178 -198 -257.5t-267 -79.5q-88 0 -201 18v326q41 -14 133 -15q92 0 124 20.5t52 80.5z" />
<glyph unicode="&#x424;" horiz-adv-x="2086" d="M90 754q0 338 124 470t425 132h205v149h401v-149h203q303 0 426 -131t123 -472t-122 -469t-427 -128h-203v-156h-401v156h-207q-303 0 -425 127t-122 471zM504 754q0 -156 42 -212.5t154 -56.5h144v541h-139q-113 0 -157 -61t-44 -211zM1245 485h135q113 0 158 57.5 t45 211.5q0 147 -45 209.5t-158 62.5h-135v-541z" />
<glyph unicode="&#x425;" horiz-adv-x="1554" d="M10 0l451 774l-422 731h469l270 -551l275 551h460l-415 -731l448 -774h-469l-299 580l-297 -580h-471z" />
<glyph unicode="&#x426;" horiz-adv-x="1624" d="M131 0v1505h401v-1155h523v1155h401v-1155h125v-694h-381v344h-1069z" />
<glyph unicode="&#x427;" horiz-adv-x="1529" d="M131 1075v430h401v-370q0 -135 46.5 -179.5t185.5 -44.5q137 0 233 29v565h402v-1505h-402v602q-131 -41 -327 -41q-301 0 -420 119t-119 395z" />
<glyph unicode="&#x428;" horiz-adv-x="2242" d="M131 0v1505h401v-1155h390v1155h401v-1155h389v1155h402v-1505h-1983z" />
<glyph unicode="&#x429;" horiz-adv-x="2281" d="M131 0v1505h401v-1155h390v1155h401v-1155h389v1155h402v-1155h124v-694h-383v344h-1724z" />
<glyph unicode="&#x42a;" horiz-adv-x="1650" d="M0 1176v329h743v-581h373q238 0 350.5 -107.5t112.5 -354.5t-113.5 -354.5t-349.5 -107.5h-774v1176h-342zM743 313h279q88 0 122 30t34 114q0 92 -34 122.5t-122 30.5h-279v-297z" />
<glyph unicode="&#x42b;" horiz-adv-x="2125" d="M131 0v1505h401v-581h373q238 0 350.5 -107.5t112.5 -354.5t-113.5 -354.5t-349.5 -107.5h-774zM532 313h279q88 0 122 30t34 114q0 92 -34 122.5t-122 30.5h-279v-297zM1595 0v1505h402v-1505h-402z" />
<glyph unicode="&#x42c;" horiz-adv-x="1458" d="M131 0v1505h401v-581h373q238 0 350.5 -107.5t112.5 -354.5t-113.5 -354.5t-349.5 -107.5h-774zM532 313h279q88 0 122 30t34 114q0 92 -34 122.5t-122 30.5h-279v-297z" />
<glyph unicode="&#x42d;" horiz-adv-x="1484" d="M70 477v66h413v-45q0 -123 53.5 -156t194.5 -33q158 0 204 70t46 246h-381v278h381q0 170 -45 228.5t-205 58.5q-127 0 -187.5 -37t-60.5 -147h-413q0 236 173 375t472 139q178 0 294.5 -22.5t209 -82t134.5 -175.5t42 -292v-391q0 -90 -11.5 -164t-28 -130t-48 -99 t-63.5 -74t-82 -50.5t-93 -31.5t-109.5 -18t-120 -8t-130.5 -2q-131 0 -222.5 10t-175.5 40.5t-133 85t-78.5 145.5t-29.5 216z" />
<glyph unicode="&#x42e;" horiz-adv-x="2250" d="M131 0v1505h401v-565h236v25q0 170 49 281.5t148.5 170t216 81t283.5 22.5t283 -22.5t215 -81t148.5 -170t49.5 -281.5v-424q0 -170 -50.5 -283t-148.5 -172t-216 -82.5t-283 -23.5t-282.5 23.5t-216 82.5t-147.5 172t-49 283v49h-236v-590h-401zM1182 584 q0 -158 59 -206t223 -48q168 0 226.5 47t58.5 207v340q0 158 -58.5 201.5t-226.5 43.5q-164 0 -223 -46t-59 -199v-340z" />
<glyph unicode="&#x42f;" horiz-adv-x="1476" d="M33 0l325 578q-145 63 -206.5 166.5t-61.5 285.5q0 246 111.5 360.5t373.5 114.5h773v-1505h-402v530h-190l-264 -530h-459zM492 1016q0 -158 182 -158h272v318h-301q-90 0 -121.5 -33t-31.5 -127z" />
<glyph unicode="&#x430;" horiz-adv-x="1220" d="M82 315q0 182 93 257t288 75q57 0 92 -3t80 -13t74.5 -37t42.5 -66h14v166q0 47 -3 70.5t-16.5 51.5t-47 38t-87.5 10q-72 0 -107.5 -21.5t-35.5 -88.5h-344q0 76 15.5 132t53 90t75.5 55.5t102.5 29.5t111.5 10t127 2q143 0 229.5 -13t152 -57.5t93 -127t27.5 -218.5 v-657h-346l12 156h-12q-31 -172 -303 -172q-195 0 -288 70.5t-93 260.5zM428 326q0 -119 150 -119q111 0 149.5 25.5t38.5 107.5q0 59 -44 75.5t-144 16.5q-74 0 -112 -20t-38 -86z" />
<glyph unicode="&#x431;" horiz-adv-x="1220" d="M90 569v193q0 338 119 492.5t395 154.5q129 0 176 17.5t47 60.5h248q0 -174 -103.5 -247t-320.5 -73q-143 0 -203.5 -60t-60.5 -243v-24h12q20 82 93 135t172 53q182 0 278 -41t143.5 -149.5t47.5 -311.5q0 -322 -103.5 -432t-413.5 -110q-166 0 -266 29.5t-158.5 101 t-80 177t-21.5 277.5zM436 526q0 -176 30 -226t150 -50q117 0 143.5 49t26.5 227q0 147 -28.5 191.5t-134.5 44.5q-113 0 -150 -48.5t-37 -187.5z" />
<glyph unicode="&#x432;" horiz-adv-x="1163" d="M111 0v1053h569q182 0 273 -59.5t91 -215.5q0 -94 -43 -144t-129 -73v-8q98 -14 154.5 -77.5t56.5 -170.5q0 -176 -86 -240.5t-295 -64.5h-591zM436 223h185q70 0 99.5 21.5t29.5 85.5q0 63 -29 85.5t-100 22.5h-185v-215zM436 649h172q63 0 87 16.5t24 73.5 q0 49 -24.5 70.5t-82.5 21.5h-176v-182z" />
<glyph unicode="&#x433;" horiz-adv-x="915" d="M111 0v1053h766v-252h-422v-801h-344z" />
<glyph unicode="&#x434;" horiz-adv-x="1320" d="M41 242h102q125 170 125 469v342h916v-811h98v-514h-309v272h-623v-272h-309v514zM487 242h353v571h-246v-113q0 -178 -23 -270t-84 -188z" />
<glyph unicode="&#x435;" horiz-adv-x="1169" d="M70 526q0 160 21.5 257.5t78.5 167t156.5 96t259.5 26.5q299 0 406.5 -112.5t107.5 -434.5v-59h-684q0 -141 32.5 -191.5t137.5 -50.5q49 0 72.5 2t50 12.5t36 34t9.5 64.5h346q0 -94 -26.5 -161.5t-68.5 -104.5t-114 -57.5t-138.5 -25.5t-166.5 -5q-156 0 -255.5 28.5 t-157.5 96t-80.5 164.5t-22.5 253zM416 657h338q0 111 -39 144t-135 33q-94 0 -129 -37.5t-35 -139.5z" />
<glyph unicode="&#x436;" horiz-adv-x="1677" d="M6 0l346 549l-282 504h348l196 -396h60v396h321v-396h60l198 396h346l-282 -504l346 -549h-371l-237 428h-60v-428h-321v428h-60l-237 -428h-371z" />
<glyph unicode="&#x437;" horiz-adv-x="1148" d="M63 328h347q0 -76 31.5 -98.5t131.5 -22.5q102 0 137 23.5t35 91.5q0 70 -35.5 93t-146.5 23h-112v211h118q84 0 115 19.5t31 78t-34 82t-123 23.5t-122 -24.5t-33 -88.5h-325v52q0 84 37 141t105.5 88t149.5 42t187 11q260 0 371.5 -64.5t111.5 -236.5t-172 -211v-8 q211 -27 211 -248q0 -190 -114.5 -255.5t-389.5 -65.5q-287 0 -399.5 65.5t-112.5 278.5z" />
<glyph unicode="&#x438;" horiz-adv-x="1216" d="M111 0v1053h309v-645h16l281 645h391v-1053h-309v651h-11l-282 -651h-395z" />
<glyph unicode="&#x439;" horiz-adv-x="1216" d="M111 0v1053h309v-645h16l271 645h401v-1053h-309v651h-11l-282 -651h-395zM289 1430h149q0 -74 31 -96.5t108.5 -22.5t111.5 22.5t34 96.5h147q0 -156 -68.5 -212.5t-228.5 -56.5q-143 0 -213.5 58.5t-70.5 210.5z" />
<glyph unicode="&#x43a;" horiz-adv-x="1187" d="M111 0v1053h344v-396h61l209 396h379l-297 -504l364 -549h-403l-252 428h-61v-428h-344z" />
<glyph unicode="&#x43b;" horiz-adv-x="1286" d="M41 -8v250q31 -4 70 -4q86 0 115.5 58t29.5 171v586h920v-1053h-345v801h-249v-340q0 -260 -103.5 -368.5t-290.5 -108.5q-77 0 -147 8z" />
<glyph unicode="&#x43c;" horiz-adv-x="1568" d="M113 0v1053h503l160 -645h17l161 645h502v-1053h-307v782h-10l-217 -782h-273l-217 782h-10v-782h-309z" />
<glyph unicode="&#x43d;" horiz-adv-x="1232" d="M111 0v1053h344v-355h323v355h346v-1053h-346v446h-323v-446h-344z" />
<glyph unicode="&#x43e;" horiz-adv-x="1193" d="M70 526q0 170 20.5 268.5t79.5 166t158.5 90t267.5 22.5q170 0 268.5 -21.5t159.5 -86t80.5 -165t19.5 -274.5q0 -172 -20.5 -270t-80.5 -162.5t-159.5 -87t-267.5 -22.5q-164 0 -263.5 24.5t-159.5 90t-81.5 163.5t-21.5 264zM416 528q0 -180 30.5 -229t147.5 -49 q119 0 151.5 49t32.5 227q0 162 -34.5 222.5t-149.5 60.5q-111 0 -144.5 -60.5t-33.5 -220.5z" />
<glyph unicode="&#x43f;" horiz-adv-x="1232" d="M111 0v1053h1013v-1053h-346v801h-323v-801h-344z" />
<glyph unicode="&#x440;" horiz-adv-x="1253" d="M111 -455v1508h344l-6 -166h14q53 186 301 186q399 0 399 -395v-240q0 -244 -92 -349t-307 -105q-109 0 -181.5 36.5t-111.5 137.5h-16v-613h-344zM455 528q0 -180 31.5 -229t148.5 -49q119 0 151.5 49t32.5 227q0 162 -34.5 222.5t-149.5 60.5q-111 0 -145.5 -60.5 t-34.5 -220.5z" />
<glyph unicode="&#x441;" horiz-adv-x="1142" d="M70 526q0 143 18 236.5t71.5 169.5t155 108.5t258.5 32.5q102 0 171 -7t139.5 -30.5t110.5 -67.5t64.5 -120t24.5 -182h-344q0 88 -32.5 115.5t-133.5 27.5q-94 0 -125.5 -53.5t-31.5 -229.5q0 -180 28.5 -228t128.5 -48q113 0 139.5 31.5t26.5 136.5h344 q0 -141 -27.5 -226.5t-95 -131.5t-154.5 -61t-233 -15q-301 0 -402 112.5t-101 429.5z" />
<glyph unicode="&#x442;" horiz-adv-x="917" d="M10 801v252h899v-252h-276v-801h-346v801h-277z" />
<glyph unicode="&#x443;" horiz-adv-x="1107" d="M6 1053h361l208 -856h5l172 856h352l-264 -1145q-47 -205 -144.5 -290t-310.5 -85q-18 0 -36.5 1t-43 3t-39.5 2v242q6 0 27.5 -4t34.5 -4q100 0 137 59t43 168h-189z" />
<glyph unicode="&#x444;" horiz-adv-x="1806" d="M90 440v240q0 201 93 297t284 96q199 0 266 -186h8v618h324v-618l8 -2q68 188 268 188q190 0 282.5 -94t92.5 -297v-240q0 -246 -87 -352t-290 -106q-88 0 -156.5 47t-99.5 127h-18v-613h-324v613h-16q-31 -80 -100.5 -127t-157.5 -47q-203 0 -290 106t-87 350zM436 525 q0 -173 32 -224t126 -51t120.5 62.5t26.5 213.5q0 170 -28.5 226.5t-120.5 56.5q-100 0 -128 -55.5t-28 -228.5zM1065 526q0 -152 26.5 -214t121 -62t126 51t31.5 224t-28.5 228.5t-129.5 55.5q-92 0 -119.5 -56.5t-27.5 -226.5z" />
<glyph unicode="&#x445;" horiz-adv-x="1128" d="M6 0l313 557l-270 496h400l118 -291l127 291h402l-277 -496l305 -557h-405l-152 348l-145 -348h-416z" />
<glyph unicode="&#x446;" horiz-adv-x="1259" d="M111 0v1053h344v-801h323v801h346v-801h97v-524h-310v272h-800z" />
<glyph unicode="&#x447;" horiz-adv-x="1198" d="M90 729v324h346v-262q0 -82 32 -112t120 -30t121.5 31t33.5 111v262h344v-1053h-344v543h-12q-27 -90 -86 -125t-196 -35q-188 0 -273.5 82t-85.5 264z" />
<glyph unicode="&#x448;" horiz-adv-x="1748" d="M111 0v1053h325v-801h277v801h325v-801h277v801h325v-1053h-1529z" />
<glyph unicode="&#x449;" horiz-adv-x="1775" d="M111 0v1053h325v-801h277v801h325v-801h277v801h325v-801h97v-524h-310v272h-1316z" />
<glyph unicode="&#x44a;" horiz-adv-x="1331" d="M0 801v252h614v-357h256q195 0 289 -82t94 -266q0 -190 -91 -269t-292 -79h-602v801h-268zM614 242h177q68 0 97.5 24.5t29.5 81.5q0 59 -29 83t-98 24h-177v-213z" />
<glyph unicode="&#x44b;" horiz-adv-x="1701" d="M111 0v1053h344v-357h258q195 0 288 -82t93 -266q0 -190 -90.5 -269t-290.5 -79h-602zM455 242h178q68 0 96.5 24.5t28.5 81.5q0 59 -28 83t-97 24h-178v-213zM1247 0v1053h344v-1053h-344z" />
<glyph unicode="&#x44c;" horiz-adv-x="1173" d="M111 0v1053h344v-357h258q195 0 288 -82t93 -266q0 -190 -90.5 -269t-290.5 -79h-602zM455 242h178q68 0 96.5 24.5t28.5 81.5q0 59 -28 83t-97 24h-178v-213z" />
<glyph unicode="&#x44d;" horiz-adv-x="1179" d="M70 391h346q0 -98 28.5 -132t137.5 -34q90 0 126.5 43t36.5 170h-227v211h227q0 106 -37.5 145.5t-125.5 39.5q-96 0 -131 -30t-35 -120h-346q0 123 35.5 203t109.5 120t157 53t210 13q160 0 262 -32.5t155.5 -107.5t72 -168t18.5 -237q0 -315 -103.5 -429.5 t-404.5 -114.5q-135 0 -222.5 14t-157 56t-101 124t-31.5 213z" />
<glyph unicode="&#x44e;" horiz-adv-x="1765" d="M111 0v1053h344v-383h168q14 236 124.5 319.5t401.5 83.5q170 0 268.5 -21.5t159.5 -86t79.5 -165t18.5 -274.5q0 -172 -19.5 -270t-79.5 -162.5t-159.5 -87t-267.5 -22.5q-295 0 -403.5 91t-122.5 343h-168v-418h-344zM967 528q0 -180 31.5 -229t148.5 -49t150.5 49 t33.5 227q0 162 -35.5 222.5t-148.5 60.5q-111 0 -145.5 -60.5t-34.5 -220.5z" />
<glyph unicode="&#x44f;" horiz-adv-x="1183" d="M51 0l207 389q-168 74 -168 316q0 184 91 266t290 82h602v-1053h-344v356h-137l-164 -356h-377zM426 707q0 -59 27.5 -84t99.5 -25h176v215h-176q-70 0 -98.5 -25.5t-28.5 -80.5z" />
<glyph unicode="&#x451;" horiz-adv-x="1169" d="M70 526q0 160 21.5 257.5t78.5 167t156.5 96t259.5 26.5q299 0 406.5 -112.5t107.5 -434.5v-59h-684q0 -141 32.5 -191.5t137.5 -50.5q49 0 72.5 2t50 12.5t36 34t9.5 64.5h346q0 -94 -26.5 -161.5t-68.5 -104.5t-114 -57.5t-138.5 -25.5t-166.5 -5q-156 0 -255.5 28.5 t-157.5 96t-80.5 164.5t-22.5 253zM260 1223v207h219v-207h-219zM416 657h338q0 111 -39 144t-135 33q-94 0 -129 -37.5t-35 -139.5zM682 1223v207h219v-207h-219z" />
<glyph unicode="&#x452;" horiz-adv-x="1232" d="M-10 1219v159h121v142h344v-142h323v-159h-323v-363h10q37 121 114.5 169t206.5 48q176 0 257 -96t81 -324v-407q0 -197 -23.5 -311.5t-87 -177t-149.5 -81t-237 -18.5v248q63 0 93 24.5t44 108.5t14 260v309q0 119 -28.5 160t-112.5 41q-106 0 -144 -59.5t-38 -169.5 v-580h-344v1219h-121z" />
<glyph unicode="&#x453;" horiz-adv-x="915" d="M111 0v1053h766v-252h-422v-801h-344zM387 1241l178 260h277l-295 -260h-160z" />
<glyph unicode="&#x454;" horiz-adv-x="1134" d="M70 528q0 143 19.5 236.5t72.5 168.5t154.5 107.5t258.5 32.5q127 0 210 -13t157 -53t108.5 -119t34.5 -204h-342q0 90 -35.5 120t-132.5 30q-88 0 -123.5 -39t-35.5 -146h225v-211h-225q0 -129 34.5 -171t124.5 -42q111 0 139.5 28t28.5 124h342q0 -104 -21.5 -176 t-59 -114t-105.5 -65.5t-139.5 -30.5t-184.5 -7q-301 0 -403 113.5t-102 430.5z" />
<glyph unicode="&#x455;" horiz-adv-x="1171" d="M70 322h346q0 -72 38 -93.5t132 -21.5q109 0 144.5 18.5t35.5 77.5q0 61 -37 83t-143 22q-285 0 -400.5 75.5t-115.5 243.5q0 113 34.5 183.5t108.5 106.5t157 46t216 10q80 0 138 -4t124.5 -18.5t107.5 -42t69 -77.5t28 -118v-51h-326q-6 55 -37 72.5t-104 17.5 q-117 0 -148.5 -20.5t-31.5 -73.5q0 -23 5 -37t21.5 -30.5t54 -24t99.5 -7.5q283 0 399.5 -62t116.5 -253q0 -115 -29 -187.5t-96.5 -109.5t-153.5 -50t-225 -13q-121 0 -193.5 6t-144.5 25.5t-108.5 55t-59 97.5t-22.5 154z" />
<glyph unicode="&#x456;" horiz-adv-x="565" d="M111 0v1053h344v-1053h-344zM111 1241v264h344v-264h-344z" />
<glyph unicode="&#x457;" horiz-adv-x="565" d="M-39 1223v207h219v-207h-219zM111 0v1053h344v-1053h-344zM383 1223v207h219v-207h-219z" />
<glyph unicode="&#x458;" horiz-adv-x="565" d="M12 -209q57 0 78 27.5t21 75.5v1159h344v-1196q0 -170 -82 -241t-258 -71q-63 0 -103 11v235zM111 1241v264h344v-264h-344z" />
<glyph unicode="&#x459;" horiz-adv-x="1904" d="M41 -8v250q31 -4 70 -4q86 0 115.5 58t29.5 171v586h920v-357h258q195 0 288 -82t93 -266q0 -190 -90.5 -269t-290.5 -79h-603v801h-249v-340q0 -260 -103.5 -368.5t-290.5 -108.5q-77 0 -147 8zM1176 242h178q68 0 96.5 24.5t28.5 81.5q0 59 -28 83t-97 24h-178v-213z " />
<glyph unicode="&#x45a;" horiz-adv-x="1851" d="M111 0v1053h344v-355h323v355h346v-357h256q195 0 288 -82t93 -266q0 -190 -90 -269t-291 -79h-602v455h-323v-455h-344zM1124 242h176q68 0 97.5 24.5t29.5 81.5q0 59 -28.5 83t-98.5 24h-176v-213z" />
<glyph unicode="&#x45b;" horiz-adv-x="1232" d="M-10 1219v159h121v142h344v-142h323v-159h-323v-363h10q37 121 114.5 169t206.5 48q338 0 338 -344v-729h-346v649q0 82 -30.5 121t-110.5 39q-106 0 -144 -59.5t-38 -169.5v-580h-344v1219h-121z" />
<glyph unicode="&#x45c;" horiz-adv-x="1187" d="M111 0v1053h344v-396h61l209 396h379l-297 -504l364 -549h-403l-252 428h-61v-428h-344zM479 1241l178 260h277l-295 -260h-160z" />
<glyph unicode="&#x45e;" horiz-adv-x="1107" d="M6 1053h361l208 -856h5l172 856h352l-264 -1145q-47 -205 -144.5 -290t-310.5 -85q-18 0 -36.5 1t-43 3t-39.5 2v242q6 0 27.5 -4t34.5 -4q100 0 137 59t43 168h-189zM291 1430h149q0 -74 31 -96.5t108.5 -22.5t111.5 22.5t34 96.5h147q0 -156 -68.5 -212.5t-228.5 -56.5 q-143 0 -213.5 58.5t-70.5 210.5z" />
<glyph unicode="&#x45f;" horiz-adv-x="1232" d="M111 0v1053h344v-801h323v801h346v-1053h-405v-272h-203v272h-405z" />
<glyph unicode="&#x490;" horiz-adv-x="1267" d="M131 0v1505h766v291h301v-620h-666v-1176h-401z" />
<glyph unicode="&#x491;" horiz-adv-x="915" d="M111 0v1053h565v182h201v-434h-422v-801h-344z" />
<glyph unicode="&#x2000;" horiz-adv-x="972" />
<glyph unicode="&#x2001;" horiz-adv-x="1945" />
<glyph unicode="&#x2002;" horiz-adv-x="972" />
<glyph unicode="&#x2003;" horiz-adv-x="1945" />
<glyph unicode="&#x2004;" horiz-adv-x="647" />
<glyph unicode="&#x2005;" horiz-adv-x="485" />
<glyph unicode="&#x2006;" horiz-adv-x="323" />
<glyph unicode="&#x2007;" horiz-adv-x="323" />
<glyph unicode="&#x2008;" horiz-adv-x="241" />
<glyph unicode="&#x2009;" horiz-adv-x="389" />
<glyph unicode="&#x200a;" horiz-adv-x="106" />
<glyph unicode="&#x2010;" d="M100 440v230h1004v-230h-1004z" />
<glyph unicode="&#x2011;" d="M100 440v230h1004v-230h-1004z" />
<glyph unicode="&#x2012;" d="M100 440v230h1004v-230h-1004z" />
<glyph unicode="&#x2013;" horiz-adv-x="1003" d="M0 440v230h1004v-230h-1004z" />
<glyph unicode="&#x2014;" horiz-adv-x="2007" d="M0 440v230h2007v-230h-2007z" />
<glyph unicode="&#x2018;" horiz-adv-x="528" d="M98 903v330q0 158 73 221.5t273 63.5v-150q-88 0 -116.5 -29.5t-28.5 -105.5h125v-330h-326z" />
<glyph unicode="&#x2019;" horiz-adv-x="528" d="M92 891v149q84 0 115 30t31 106h-125v329h325v-329q0 -158 -72.5 -221.5t-273.5 -63.5z" />
<glyph unicode="&#x201a;" horiz-adv-x="720" d="M170 -137q86 0 115.5 30.5t29.5 106.5h-125v330h326v-330q0 -158 -72.5 -221.5t-273.5 -63.5v148z" />
<glyph unicode="&#x201c;" horiz-adv-x="980" d="M98 903v330q0 158 73 221.5t273 63.5v-150q-88 0 -116.5 -29.5t-28.5 -105.5h125v-330h-326zM551 903v330q0 158 71.5 221.5t272.5 63.5v-150q-84 0 -113.5 -29.5t-29.5 -105.5h122v-330h-323z" />
<glyph unicode="&#x201d;" horiz-adv-x="980" d="M92 891v149q84 0 115 30t31 106h-125v329h325v-329q0 -158 -72.5 -221.5t-273.5 -63.5zM545 891v149q86 0 114.5 30t28.5 106h-125v329h326v-329q0 -158 -71.5 -221.5t-272.5 -63.5z" />
<glyph unicode="&#x201e;" horiz-adv-x="980" d="M88 -137q84 0 114.5 30.5t30.5 106.5h-124v330h325v-330q0 -158 -72.5 -221.5t-273.5 -63.5v148zM541 -137q86 0 114.5 30.5t28.5 106.5h-125v330h326v-330q0 -158 -72 -221.5t-272 -63.5v148z" />
<glyph unicode="&#x2020;" horiz-adv-x="1443" d="M184 801v264h367v440h344v-440h365v-264h-365v-1256h-344v1256h-367z" />
<glyph unicode="&#x2021;" horiz-adv-x="1443" d="M94 553v293h178v215q0 172 48.5 267t175.5 143.5t358 48.5q229 0 348 -42t163 -133.5t44 -269.5v-69h-393q0 106 -32 142t-132 36q-104 0 -141 -37t-37 -143v-158h381v-293h-381q0 -102 -15.5 -147.5t-78.5 -73.5v-10h829v-322h-1268v322q86 0 108.5 52t22.5 179h-178z " />
<glyph unicode="&#x2022;" d="M231 754q0 154 110 265t265.5 111t266 -110.5t110.5 -265.5q0 -156 -110.5 -266.5t-266 -110.5t-265.5 109.5t-110 267.5z" />
<glyph unicode="&#x2026;" horiz-adv-x="2007" d="M170 0v330h326v-330h-326zM842 0v330h323v-330h-323zM1511 0v330h326v-330h-326z" />
<glyph unicode="&#x202f;" horiz-adv-x="389" />
<glyph unicode="&#x2030;" horiz-adv-x="2588" d="M47 1024v221q0 172 65.5 222.5t252.5 50.5q188 0 260.5 -50.5t72.5 -220.5v-221q0 -172 -71.5 -222t-259.5 -50q-186 0 -253 49t-67 221zM248 1055q0 -90 19.5 -108.5t97.5 -18.5q84 0 108.5 19.5t24.5 107.5v168q0 84 -23.5 102t-109.5 18q-78 0 -97.5 -18t-19.5 -102 v-168zM358 0l891 1505h240l-889 -1505h-242zM1122 258v221q0 172 65.5 223.5t254.5 51.5q188 0 260 -51.5t72 -221.5v-221q0 -170 -71 -221t-259 -51t-255 50t-67 220zM1323 291q0 -90 19.5 -109.5t99.5 -19.5q82 0 106.5 20.5t24.5 108.5v166q0 86 -22.5 103.5t-108.5 17.5 q-80 0 -99.5 -17.5t-19.5 -103.5v-166zM1890 258v221q0 172 66.5 223.5t253.5 51.5q188 0 261 -51.5t73 -221.5v-221q0 -170 -72 -221t-260 -51q-186 0 -254 50t-68 220zM2091 291q0 -90 20.5 -109.5t98.5 -19.5q82 0 107.5 20.5t25.5 108.5v166q0 86 -23.5 103.5 t-109.5 17.5q-78 0 -98.5 -17.5t-20.5 -103.5v-166z" />
<glyph unicode="&#x2039;" horiz-adv-x="663" d="M88 547l258 487l225 -123l-192 -364l192 -340l-215 -133z" />
<glyph unicode="&#x203a;" horiz-adv-x="661" d="M78 197l192 364l-192 340l215 133l268 -473l-256 -487z" />
<glyph unicode="&#x205f;" horiz-adv-x="485" />
<glyph unicode="&#x20ac;" horiz-adv-x="1452" d="M37 489l78 191h96q0 6 -1 26.5t-1 34.5q0 12 1 28.5t1 25.5h-174l78 188h114q125 539 703 539q133 0 238.5 -32t156.5 -69v-313q-117 113 -362 113q-311 0 -379 -238h647l-78 -188h-596q0 -6 -1 -23.5t-1 -26.5q0 -37 4 -65h547l-78 -191h-434q61 -209 371 -208 q113 0 211 33.5t149 78.5v-319q-127 -92 -395 -92q-596 0 -701 507h-194z" />
<glyph unicode="&#x2116;" horiz-adv-x="2406" d="M127 0v1505h623l356 -1153h12l-39 1153h402v-1505h-625l-356 1155h-13l41 -1155h-401zM1610 100v154h631v-154h-631zM1610 686q0 102 10 158.5t43 98.5t94.5 56.5t168 14.5t167.5 -14.5t94 -56.5t43.5 -98.5t10.5 -158.5t-10.5 -158.5t-43.5 -98.5t-94 -57.5 t-167.5 -15.5t-168 15.5t-94.5 57.5t-43 98.5t-10 158.5zM1819 686q0 -111 20.5 -142.5t85 -31.5t86 31.5t21.5 142.5t-20.5 141.5t-84.5 30.5h-2q-66 0 -86 -30.5t-20 -141.5z" />
<glyph unicode="&#x2122;" horiz-adv-x="1800" d="M27 1339v166h698v-166h-248v-645h-205v645h-245zM813 694v811h295l182 -479l183 479h294v-811h-186v645h-6l-232 -645h-104l-233 645h-7v-645h-186z" />
<glyph unicode="&#xe000;" horiz-adv-x="1055" d="M0 1055h1055v-1055h-1055v1055z" />
<glyph d="M100 440v230h1004v-230h-1004z" />
</font>
</defs>
</svg>
